<mxfile host="Electron" modified="2024-08-27T20:04:04.280Z" agent="Mozilla/5.0 (Windows NT 10.0; Win64; x64) AppleWebKit/537.36 (KHTML, like Gecko) draw.io/24.6.1 Chrome/124.0.6367.207 Electron/30.0.6 Safari/537.36" etag="2uh-9s9PgR-p3cVM7gT_" version="24.6.1" type="device" pages="4">
  <diagram name="Types" id="mCxjQRU6cnXl6jHK33Ih">
    <mxGraphModel dx="1420" dy="1991" grid="1" gridSize="10" guides="1" tooltips="1" connect="1" arrows="1" fold="1" page="1" pageScale="1" pageWidth="827" pageHeight="1169" math="0" shadow="0">
      <root>
        <mxCell id="0" />
        <mxCell id="1" parent="0" />
        <mxCell id="GqYi4pi1arAsL5BwQ04q-28" value="" style="group" parent="1" vertex="1" connectable="0">
          <mxGeometry x="380" y="-310" width="270" height="177.51538461538456" as="geometry" />
        </mxCell>
        <mxCell id="GqYi4pi1arAsL5BwQ04q-18" value="&lt;span style=&quot;color: rgb(0, 0, 0); text-wrap: nowrap;&quot;&gt;Enum: t_eFMKCDA_AcquisitionMode&lt;/span&gt;&lt;div&gt;&lt;span style=&quot;color: rgb(0, 0, 0); text-wrap: nowrap;&quot;&gt;Location : FMKCDA_CFG.h&lt;/span&gt;&lt;/div&gt;" style="rounded=0;whiteSpace=wrap;html=1;verticalAlign=top;fillColor=#f8cecc;gradientColor=#ea6b66;strokeColor=#b85450;fontSize=16;align=left;container=1;" parent="GqYi4pi1arAsL5BwQ04q-28" vertex="1">
          <mxGeometry width="270" height="170" as="geometry">
            <mxRectangle width="280" height="50" as="alternateBounds" />
          </mxGeometry>
        </mxCell>
        <mxCell id="GqYi4pi1arAsL5BwQ04q-19" value="FMKCDA_ACQUISITION_SINGLE" style="rounded=0;whiteSpace=wrap;html=1;fillColor=#f8cecc;gradientColor=#ea6b66;strokeColor=#b85450;fontColor=#000000;container=0;" parent="GqYi4pi1arAsL5BwQ04q-28" vertex="1">
          <mxGeometry y="44.378846153846155" width="270" height="26.627307692307696" as="geometry" />
        </mxCell>
        <mxCell id="GqYi4pi1arAsL5BwQ04q-20" value="FMKCDA_ACQUISITION_CONTINUOUS" style="rounded=0;whiteSpace=wrap;html=1;fillColor=#f8cecc;gradientColor=#ea6b66;strokeColor=#b85450;fontColor=#000000;container=0;" parent="GqYi4pi1arAsL5BwQ04q-28" vertex="1">
          <mxGeometry y="71.00615384615386" width="270" height="26.627307692307696" as="geometry" />
        </mxCell>
        <mxCell id="GqYi4pi1arAsL5BwQ04q-21" value="FMKCDA_ACQUISITION_SCAN" style="rounded=0;whiteSpace=wrap;html=1;fillColor=#f8cecc;gradientColor=#ea6b66;strokeColor=#b85450;fontColor=#000000;container=0;" parent="GqYi4pi1arAsL5BwQ04q-28" vertex="1">
          <mxGeometry y="97.63346153846157" width="270" height="26.627307692307696" as="geometry" />
        </mxCell>
        <mxCell id="GqYi4pi1arAsL5BwQ04q-22" value="FMKCDA_ACQUISITION_TRIGERRED" style="rounded=0;whiteSpace=wrap;html=1;fillColor=#f8cecc;gradientColor=#ea6b66;strokeColor=#b85450;fontColor=#000000;container=0;" parent="GqYi4pi1arAsL5BwQ04q-28" vertex="1">
          <mxGeometry y="124.26076923076926" width="270" height="26.627307692307696" as="geometry" />
        </mxCell>
        <mxCell id="GqYi4pi1arAsL5BwQ04q-23" value="FMKCDA_ACQUISITION_NB" style="rounded=0;whiteSpace=wrap;html=1;fillColor=#f8cecc;gradientColor=#ea6b66;strokeColor=#b85450;fontColor=#000000;container=0;" parent="GqYi4pi1arAsL5BwQ04q-28" vertex="1">
          <mxGeometry y="150.88807692307688" width="270" height="26.627307692307696" as="geometry" />
        </mxCell>
        <mxCell id="GqYi4pi1arAsL5BwQ04q-31" value="&lt;span style=&quot;color: rgb(0, 0, 0); text-wrap: nowrap;&quot;&gt;Enum: t_eFMKCDA_ResultMode&lt;/span&gt;&lt;div&gt;&lt;span style=&quot;color: rgb(0, 0, 0); text-wrap: nowrap;&quot;&gt;Location : FMKCDA_CFG.h&lt;/span&gt;&lt;/div&gt;" style="rounded=0;whiteSpace=wrap;html=1;verticalAlign=top;fillColor=#f8cecc;gradientColor=#ea6b66;strokeColor=#b85450;fontSize=16;align=left;container=1;" parent="1" vertex="1">
          <mxGeometry x="50" y="-310" width="270" height="150" as="geometry">
            <mxRectangle width="280" height="50" as="alternateBounds" />
          </mxGeometry>
        </mxCell>
        <mxCell id="GqYi4pi1arAsL5BwQ04q-32" value="FMKCDA_RESULT_REGISTER" style="rounded=0;whiteSpace=wrap;html=1;fillColor=#f8cecc;gradientColor=#ea6b66;strokeColor=#b85450;fontColor=#000000;container=0;" parent="1" vertex="1">
          <mxGeometry x="50" y="-265.62115384615385" width="270" height="26.627307692307696" as="geometry" />
        </mxCell>
        <mxCell id="GqYi4pi1arAsL5BwQ04q-33" value="FMKCDA_RESULT_INTERRUPT" style="rounded=0;whiteSpace=wrap;html=1;fillColor=#f8cecc;gradientColor=#ea6b66;strokeColor=#b85450;fontColor=#000000;container=0;" parent="1" vertex="1">
          <mxGeometry x="50" y="-238.99384615384614" width="270" height="26.627307692307696" as="geometry" />
        </mxCell>
        <mxCell id="GqYi4pi1arAsL5BwQ04q-34" value="FMKCDA_RESULT_DMA" style="rounded=0;whiteSpace=wrap;html=1;fillColor=#f8cecc;gradientColor=#ea6b66;strokeColor=#b85450;fontColor=#000000;container=0;" parent="1" vertex="1">
          <mxGeometry x="50" y="-212.36653846153843" width="270" height="26.627307692307696" as="geometry" />
        </mxCell>
        <mxCell id="GqYi4pi1arAsL5BwQ04q-48" style="edgeStyle=orthogonalEdgeStyle;rounded=0;orthogonalLoop=1;jettySize=auto;html=1;exitX=0.5;exitY=1;exitDx=0;exitDy=0;" parent="1" source="GqYi4pi1arAsL5BwQ04q-35" target="GqYi4pi1arAsL5BwQ04q-39" edge="1">
          <mxGeometry relative="1" as="geometry" />
        </mxCell>
        <mxCell id="GqYi4pi1arAsL5BwQ04q-35" value="FMKCDA_RESULT_NB" style="rounded=0;whiteSpace=wrap;html=1;fillColor=#f8cecc;gradientColor=#ea6b66;strokeColor=#b85450;fontColor=#000000;container=0;" parent="1" vertex="1">
          <mxGeometry x="50" y="-185.73923076923074" width="270" height="26.627307692307696" as="geometry" />
        </mxCell>
        <mxCell id="GqYi4pi1arAsL5BwQ04q-47" value="" style="group" parent="1" vertex="1" connectable="0">
          <mxGeometry x="190" y="70" width="258.92116182572613" height="104.60999999999999" as="geometry" />
        </mxCell>
        <mxCell id="GqYi4pi1arAsL5BwQ04q-39" value="&lt;span style=&quot;color: rgb(0, 0, 0); text-wrap: nowrap;&quot;&gt;Struct: t_sFMKCDA_HwChannelCfg&lt;/span&gt;&lt;div&gt;&lt;span style=&quot;color: rgb(0, 0, 0); text-wrap: nowrap;&quot;&gt;Location : FMKCDA_CFG&lt;/span&gt;&lt;/div&gt;" style="rounded=0;whiteSpace=wrap;html=1;verticalAlign=top;fillColor=#dae8fc;gradientColor=#7ea6e0;strokeColor=#6c8ebf;fontSize=16;align=left;fontStyle=0" parent="GqYi4pi1arAsL5BwQ04q-47" vertex="1">
          <mxGeometry x="1.0799999999999272" width="257.84" height="100" as="geometry" />
        </mxCell>
        <mxCell id="GqYi4pi1arAsL5BwQ04q-40" value="&lt;span style=&quot;color: rgb(0, 0, 0); text-align: left; text-wrap: nowrap;&quot;&gt;t_eFMKCDA_AcquisitionMode&lt;/span&gt;" style="rounded=0;whiteSpace=wrap;html=1;fillColor=#dae8fc;gradientColor=#7ea6e0;strokeColor=#6c8ebf;fontStyle=0" parent="GqYi4pi1arAsL5BwQ04q-47" vertex="1">
          <mxGeometry y="49.99692307692308" width="258.92116182572613" height="28.846153846153847" as="geometry" />
        </mxCell>
        <mxCell id="GqYi4pi1arAsL5BwQ04q-41" value="&lt;span style=&quot;color: rgb(0, 0, 0); text-align: left; text-wrap: nowrap;&quot;&gt;t_eFMKCDA_ResultMode&lt;/span&gt;" style="rounded=0;whiteSpace=wrap;html=1;fillColor=#dae8fc;gradientColor=#7ea6e0;strokeColor=#6c8ebf;fontStyle=0" parent="GqYi4pi1arAsL5BwQ04q-47" vertex="1">
          <mxGeometry y="78.83999999999997" width="258.92116182572613" height="25.77" as="geometry" />
        </mxCell>
        <mxCell id="GqYi4pi1arAsL5BwQ04q-49" style="edgeStyle=orthogonalEdgeStyle;rounded=0;orthogonalLoop=1;jettySize=auto;html=1;exitX=0.5;exitY=1;exitDx=0;exitDy=0;entryX=0.5;entryY=0;entryDx=0;entryDy=0;" parent="1" source="GqYi4pi1arAsL5BwQ04q-23" target="GqYi4pi1arAsL5BwQ04q-39" edge="1">
          <mxGeometry relative="1" as="geometry" />
        </mxCell>
        <mxCell id="GqYi4pi1arAsL5BwQ04q-50" value="" style="group" parent="1" vertex="1" connectable="0">
          <mxGeometry x="104.46" y="270" width="430" height="90" as="geometry" />
        </mxCell>
        <mxCell id="GqYi4pi1arAsL5BwQ04q-51" value="" style="rounded=0;whiteSpace=wrap;html=1;fillColor=#fff2cc;gradientColor=#ffd966;strokeColor=#d6b656;fontColor=#000000;" parent="GqYi4pi1arAsL5BwQ04q-50" vertex="1">
          <mxGeometry width="429.99999999999994" height="90" as="geometry" />
        </mxCell>
        <mxCell id="GqYi4pi1arAsL5BwQ04q-52" value="&lt;span style=&quot;font-size: 16px; text-align: left; text-wrap: nowrap;&quot;&gt;t_sFMKCDA_HwChannelCfg In FMKCDA_CFG&lt;/span&gt;" style="rounded=0;whiteSpace=wrap;html=1;fillColor=#fff2cc;gradientColor=#ffd966;strokeColor=#d6b656;fontColor=#000000;" parent="GqYi4pi1arAsL5BwQ04q-50" vertex="1">
          <mxGeometry width="429.99999999999994" height="40" as="geometry" />
        </mxCell>
        <mxCell id="GqYi4pi1arAsL5BwQ04q-53" value="&lt;span style=&quot;font-size: 16px; text-align: left; text-wrap: nowrap;&quot;&gt;c_FMKCDA_HardwareCfg_as&lt;/span&gt;[FMKCDA_CFG_NB]" style="rounded=0;whiteSpace=wrap;html=1;fillColor=#fff2cc;gradientColor=#ffd966;strokeColor=#d6b656;fontColor=#000000;" parent="GqYi4pi1arAsL5BwQ04q-50" vertex="1">
          <mxGeometry y="40" width="429.99999999999994" height="50" as="geometry" />
        </mxCell>
        <mxCell id="GqYi4pi1arAsL5BwQ04q-54" style="edgeStyle=orthogonalEdgeStyle;rounded=0;orthogonalLoop=1;jettySize=auto;html=1;exitX=0.5;exitY=1;exitDx=0;exitDy=0;" parent="1" source="GqYi4pi1arAsL5BwQ04q-41" target="GqYi4pi1arAsL5BwQ04q-52" edge="1">
          <mxGeometry relative="1" as="geometry" />
        </mxCell>
        <mxCell id="GqYi4pi1arAsL5BwQ04q-59" value="" style="group" parent="1" vertex="1" connectable="0">
          <mxGeometry x="700" y="-310" width="260.0000000000001" height="310" as="geometry" />
        </mxCell>
        <mxCell id="GqYi4pi1arAsL5BwQ04q-2" value="&lt;span style=&quot;color: rgb(0, 0, 0); text-wrap: nowrap;&quot;&gt;Enum: t_eFMKCDA_ConfigMode&lt;/span&gt;&lt;div&gt;&lt;span style=&quot;color: rgb(0, 0, 0); text-wrap: nowrap;&quot;&gt;Location : FMKCDA_CFG.h&lt;/span&gt;&lt;/div&gt;" style="rounded=0;whiteSpace=wrap;html=1;verticalAlign=top;fillColor=#f8cecc;gradientColor=#ea6b66;strokeColor=#b85450;fontSize=16;align=left;container=0;" parent="GqYi4pi1arAsL5BwQ04q-59" vertex="1">
          <mxGeometry width="260.0000000000001" height="310" as="geometry">
            <mxRectangle width="280" height="50" as="alternateBounds" />
          </mxGeometry>
        </mxCell>
        <mxCell id="GqYi4pi1arAsL5BwQ04q-3" value="FMKCDA_CFG_BASIC_REGISTER" style="rounded=0;whiteSpace=wrap;html=1;fillColor=#f8cecc;gradientColor=#ea6b66;strokeColor=#b85450;fontColor=#000000;container=0;" parent="GqYi4pi1arAsL5BwQ04q-59" vertex="1">
          <mxGeometry y="44.378846153846155" width="260.0000000000001" height="26.627307692307696" as="geometry" />
        </mxCell>
        <mxCell id="GqYi4pi1arAsL5BwQ04q-4" value="FMKCDA_CFG_PERIODIC_INTERRUPT" style="rounded=0;whiteSpace=wrap;html=1;fillColor=#f8cecc;gradientColor=#ea6b66;strokeColor=#b85450;fontColor=#000000;container=0;" parent="GqYi4pi1arAsL5BwQ04q-59" vertex="1">
          <mxGeometry y="71.00615384615386" width="260.0000000000001" height="26.627307692307696" as="geometry" />
        </mxCell>
        <mxCell id="GqYi4pi1arAsL5BwQ04q-6" value="FMKCDA_CFG_SCAN_INTERRUPT" style="rounded=0;whiteSpace=wrap;html=1;fillColor=#f8cecc;gradientColor=#ea6b66;strokeColor=#b85450;fontColor=#000000;container=0;" parent="GqYi4pi1arAsL5BwQ04q-59" vertex="1">
          <mxGeometry y="124.26076923076926" width="260.0000000000001" height="26.627307692307696" as="geometry" />
        </mxCell>
        <mxCell id="GqYi4pi1arAsL5BwQ04q-7" value="FMKCDA_CFG_SCAN_DMA" style="rounded=0;whiteSpace=wrap;html=1;fillColor=#f8cecc;gradientColor=#ea6b66;strokeColor=#b85450;fontColor=#000000;container=0;" parent="GqYi4pi1arAsL5BwQ04q-59" vertex="1">
          <mxGeometry y="150.88807692307688" width="260.0000000000001" height="26.627307692307696" as="geometry" />
        </mxCell>
        <mxCell id="GqYi4pi1arAsL5BwQ04q-8" value="FMKCDA_CFG_TRIGGERED_REGISTER" style="rounded=0;whiteSpace=wrap;html=1;fillColor=#f8cecc;gradientColor=#ea6b66;strokeColor=#b85450;fontColor=#000000;container=0;" parent="GqYi4pi1arAsL5BwQ04q-59" vertex="1">
          <mxGeometry y="177.51538461538456" width="260.0000000000001" height="26.627307692307696" as="geometry" />
        </mxCell>
        <mxCell id="GqYi4pi1arAsL5BwQ04q-9" value="FMKCDA_CFG_TRIGERRED_INTERRUPT" style="rounded=0;whiteSpace=wrap;html=1;fillColor=#f8cecc;gradientColor=#ea6b66;strokeColor=#b85450;fontColor=#000000;container=0;" parent="GqYi4pi1arAsL5BwQ04q-59" vertex="1">
          <mxGeometry y="204.14269230769233" width="260.0000000000001" height="26.627307692307696" as="geometry" />
        </mxCell>
        <mxCell id="GqYi4pi1arAsL5BwQ04q-10" value="FMKCDA_CFG_TRIGERRED_INTERRUPT" style="rounded=0;whiteSpace=wrap;html=1;fillColor=#f8cecc;gradientColor=#ea6b66;strokeColor=#b85450;fontColor=#000000;container=0;" parent="GqYi4pi1arAsL5BwQ04q-59" vertex="1">
          <mxGeometry y="230.0026923076923" width="260.0000000000001" height="26.627307692307696" as="geometry" />
        </mxCell>
        <mxCell id="GqYi4pi1arAsL5BwQ04q-11" value="FMKCDA_CFG_TRIGERRED_DMA" style="rounded=0;whiteSpace=wrap;html=1;fillColor=#f8cecc;gradientColor=#ea6b66;strokeColor=#b85450;fontColor=#000000;container=0;" parent="GqYi4pi1arAsL5BwQ04q-59" vertex="1">
          <mxGeometry y="256.6326923076923" width="260.0000000000001" height="26.627307692307696" as="geometry" />
        </mxCell>
        <mxCell id="GqYi4pi1arAsL5BwQ04q-29" value="FMKCDA_CFG_NB" style="rounded=0;whiteSpace=wrap;html=1;fillColor=#f8cecc;gradientColor=#ea6b66;strokeColor=#b85450;fontColor=#000000;container=0;" parent="GqYi4pi1arAsL5BwQ04q-59" vertex="1">
          <mxGeometry y="283.0026923076923" width="260.0000000000001" height="26.627307692307696" as="geometry" />
        </mxCell>
        <mxCell id="GqYi4pi1arAsL5BwQ04q-5" value="FMKCDA_CFG_PERIODIC_DMA" style="rounded=0;whiteSpace=wrap;html=1;fillColor=#f8cecc;gradientColor=#ea6b66;strokeColor=#b85450;fontColor=#000000;container=0;" parent="GqYi4pi1arAsL5BwQ04q-59" vertex="1">
          <mxGeometry y="97.63346153846157" width="260.0000000000001" height="26.627307692307696" as="geometry" />
        </mxCell>
        <mxCell id="GqYi4pi1arAsL5BwQ04q-76" value="" style="group" parent="1" vertex="1" connectable="0">
          <mxGeometry x="640" y="270" width="430" height="90" as="geometry" />
        </mxCell>
        <mxCell id="GqYi4pi1arAsL5BwQ04q-77" value="" style="rounded=0;whiteSpace=wrap;html=1;fillColor=#fff2cc;gradientColor=#ffd966;strokeColor=#d6b656;fontColor=#000000;" parent="GqYi4pi1arAsL5BwQ04q-76" vertex="1">
          <mxGeometry width="429.99999999999994" height="90" as="geometry" />
        </mxCell>
        <mxCell id="GqYi4pi1arAsL5BwQ04q-78" value="&lt;span style=&quot;font-size: 16px; text-align: left; text-wrap: nowrap;&quot;&gt;t_uint32 In FMKCDA_CFG&lt;/span&gt;" style="rounded=0;whiteSpace=wrap;html=1;fillColor=#fff2cc;gradientColor=#ffd966;strokeColor=#d6b656;fontColor=#000000;" parent="GqYi4pi1arAsL5BwQ04q-76" vertex="1">
          <mxGeometry width="429.99999999999994" height="40" as="geometry" />
        </mxCell>
        <mxCell id="GqYi4pi1arAsL5BwQ04q-79" value="&lt;span style=&quot;font-size: 16px; text-align: left; text-wrap: nowrap;&quot;&gt;c_FMKCDA_SigChannelM_ua32&lt;/span&gt;[ANA_NB]" style="rounded=0;whiteSpace=wrap;html=1;fillColor=#fff2cc;gradientColor=#ffd966;strokeColor=#d6b656;fontColor=#000000;" parent="GqYi4pi1arAsL5BwQ04q-76" vertex="1">
          <mxGeometry y="40" width="429.99999999999994" height="50" as="geometry" />
        </mxCell>
        <mxCell id="GqYi4pi1arAsL5BwQ04q-106" value="" style="group" parent="1" vertex="1" connectable="0">
          <mxGeometry x="1300" y="-680" width="300" height="230.7800000000001" as="geometry" />
        </mxCell>
        <mxCell id="GqYi4pi1arAsL5BwQ04q-96" value="&lt;span style=&quot;color: rgb(0, 0, 0); text-wrap: nowrap;&quot;&gt;Enum: t_eFMKCDA_ChannelErrorState&lt;/span&gt;&lt;div&gt;&lt;span style=&quot;color: rgb(0, 0, 0); text-wrap: nowrap;&quot;&gt;Location : FMKCDA_CFG.h&lt;/span&gt;&lt;/div&gt;" style="rounded=0;whiteSpace=wrap;html=1;verticalAlign=top;fillColor=#f8cecc;gradientColor=#ea6b66;strokeColor=#b85450;fontSize=16;align=left;container=0;" parent="GqYi4pi1arAsL5BwQ04q-106" vertex="1">
          <mxGeometry width="300" height="220" as="geometry">
            <mxRectangle width="280" height="50" as="alternateBounds" />
          </mxGeometry>
        </mxCell>
        <mxCell id="GqYi4pi1arAsL5BwQ04q-97" value="FMKCDA_CHANNEL_STATE_OK" style="rounded=0;whiteSpace=wrap;html=1;fillColor=#f8cecc;gradientColor=#ea6b66;strokeColor=#b85450;fontColor=#000000;container=0;" parent="GqYi4pi1arAsL5BwQ04q-106" vertex="1">
          <mxGeometry y="44.379999999999995" width="300" height="26.628000000000014" as="geometry" />
        </mxCell>
        <mxCell id="GqYi4pi1arAsL5BwQ04q-98" value="FMKCDA_CHANNEL_STATE_ERR_INTERNAL" style="rounded=0;whiteSpace=wrap;html=1;fillColor=#f8cecc;gradientColor=#ea6b66;strokeColor=#b85450;fontColor=#000000;container=0;" parent="GqYi4pi1arAsL5BwQ04q-106" vertex="1">
          <mxGeometry y="71.00800000000004" width="300" height="26.628000000000014" as="geometry" />
        </mxCell>
        <mxCell id="GqYi4pi1arAsL5BwQ04q-99" value="FMKCDA_CHANNEL_ERR_OVR" style="rounded=0;whiteSpace=wrap;html=1;fillColor=#f8cecc;gradientColor=#ea6b66;strokeColor=#b85450;fontColor=#000000;container=0;" parent="GqYi4pi1arAsL5BwQ04q-106" vertex="1">
          <mxGeometry y="97.63600000000008" width="300" height="26.628000000000014" as="geometry" />
        </mxCell>
        <mxCell id="GqYi4pi1arAsL5BwQ04q-100" value="FMKCDA_CHANNEL_STATE_ERR_DMA" style="rounded=0;whiteSpace=wrap;html=1;fillColor=#f8cecc;gradientColor=#ea6b66;strokeColor=#b85450;fontColor=#000000;container=0;" parent="GqYi4pi1arAsL5BwQ04q-106" vertex="1">
          <mxGeometry y="124.26400000000012" width="300" height="26.628000000000014" as="geometry" />
        </mxCell>
        <mxCell id="GqYi4pi1arAsL5BwQ04q-101" value="FMKCDA_CHANNEL_STATE_ERR_CB" style="rounded=0;whiteSpace=wrap;html=1;fillColor=#f8cecc;gradientColor=#ea6b66;strokeColor=#b85450;fontColor=#000000;container=0;" parent="GqYi4pi1arAsL5BwQ04q-106" vertex="1">
          <mxGeometry y="150.89200000000005" width="300" height="26.628000000000014" as="geometry" />
        </mxCell>
        <mxCell id="GqYi4pi1arAsL5BwQ04q-102" value="FMKCDA_CHANNEL_STATE_ERR_JQOVF" style="rounded=0;whiteSpace=wrap;html=1;fillColor=#f8cecc;gradientColor=#ea6b66;strokeColor=#b85450;fontColor=#000000;container=0;" parent="GqYi4pi1arAsL5BwQ04q-106" vertex="1">
          <mxGeometry y="177.52200000000005" width="300" height="26.628000000000014" as="geometry" />
        </mxCell>
        <mxCell id="GqYi4pi1arAsL5BwQ04q-104" value="FMKCDA_CHANNEL_STATE_NB" style="rounded=0;whiteSpace=wrap;html=1;fillColor=#f8cecc;gradientColor=#ea6b66;strokeColor=#b85450;fontColor=#000000;container=0;" parent="GqYi4pi1arAsL5BwQ04q-106" vertex="1">
          <mxGeometry y="204.15200000000004" width="300" height="26.628000000000014" as="geometry" />
        </mxCell>
        <mxCell id="9kTj7aBQRixBP0iQqbYa-6" value="" style="group" parent="1" vertex="1" connectable="0">
          <mxGeometry x="1100" y="-212.36" width="258.92116182572636" height="131.01000000000002" as="geometry" />
        </mxCell>
        <mxCell id="GqYi4pi1arAsL5BwQ04q-81" value="&lt;span style=&quot;color: rgb(0, 0, 0); text-wrap: nowrap;&quot;&gt;Struct: t_sFMKCDA_AdcInfo&lt;/span&gt;&lt;div&gt;&lt;span style=&quot;color: rgb(0, 0, 0); text-wrap: nowrap;&quot;&gt;Location : FMKCDA.c&lt;/span&gt;&lt;/div&gt;" style="rounded=0;whiteSpace=wrap;html=1;verticalAlign=top;fillColor=#dae8fc;gradientColor=#7ea6e0;strokeColor=#6c8ebf;fontSize=16;align=left;fontStyle=0" parent="9kTj7aBQRixBP0iQqbYa-6" vertex="1">
          <mxGeometry x="1.0799999999999272" width="257.84" height="130" as="geometry" />
        </mxCell>
        <mxCell id="GqYi4pi1arAsL5BwQ04q-82" value="&lt;span style=&quot;color: rgb(0, 0, 0); text-align: left; text-wrap: nowrap;&quot;&gt;ADC_CHannel_HandleTypedef&lt;/span&gt;" style="rounded=0;whiteSpace=wrap;html=1;fillColor=#dae8fc;gradientColor=#7ea6e0;strokeColor=#6c8ebf;fontStyle=0" parent="9kTj7aBQRixBP0iQqbYa-6" vertex="1">
          <mxGeometry y="50.62692307692305" width="258.92116182572613" height="28.846153846153847" as="geometry" />
        </mxCell>
        <mxCell id="GqYi4pi1arAsL5BwQ04q-91" value="&lt;span style=&quot;color: rgb(0, 0, 0); text-align: left; text-wrap: nowrap;&quot;&gt;t_sFMKCDA_SigChnlInfo []&lt;/span&gt;" style="rounded=0;whiteSpace=wrap;html=1;fillColor=#dae8fc;gradientColor=#7ea6e0;strokeColor=#6c8ebf;fontStyle=0" parent="9kTj7aBQRixBP0iQqbYa-6" vertex="1">
          <mxGeometry x="2.2737367544323206e-13" y="79.46999999999997" width="258.92116182572613" height="25.77" as="geometry" />
        </mxCell>
        <mxCell id="GqYi4pi1arAsL5BwQ04q-92" value="&lt;span style=&quot;color: rgb(0, 0, 0); text-align: left; text-wrap: nowrap;&quot;&gt;t_bool IsBspAdcRunning_b&lt;/span&gt;" style="rounded=0;whiteSpace=wrap;html=1;fillColor=#dae8fc;gradientColor=#7ea6e0;strokeColor=#6c8ebf;fontStyle=0" parent="9kTj7aBQRixBP0iQqbYa-6" vertex="1">
          <mxGeometry x="2.2737367544323206e-13" y="105.24000000000001" width="258.92116182572613" height="25.77" as="geometry" />
        </mxCell>
        <mxCell id="9kTj7aBQRixBP0iQqbYa-7" value="" style="group" parent="1" vertex="1" connectable="0">
          <mxGeometry x="1358.92" y="160" width="258.92116182572636" height="131.01000000000002" as="geometry" />
        </mxCell>
        <mxCell id="9kTj7aBQRixBP0iQqbYa-8" value="&lt;span style=&quot;color: rgb(0, 0, 0); text-wrap: nowrap;&quot;&gt;Struct: t_sFMKCDA_SigValue&lt;/span&gt;&lt;div&gt;&lt;span style=&quot;color: rgb(0, 0, 0); text-wrap: nowrap;&quot;&gt;Location : FMKCDA.c&lt;/span&gt;&lt;/div&gt;" style="rounded=0;whiteSpace=wrap;html=1;verticalAlign=top;fillColor=#dae8fc;gradientColor=#7ea6e0;strokeColor=#6c8ebf;fontSize=16;align=left;fontStyle=0" parent="9kTj7aBQRixBP0iQqbYa-7" vertex="1">
          <mxGeometry x="1.0799999999999272" width="257.84" height="130" as="geometry" />
        </mxCell>
        <mxCell id="9kTj7aBQRixBP0iQqbYa-9" value="&lt;span style=&quot;color: rgb(0, 0, 0); text-align: left; text-wrap: nowrap;&quot;&gt;t_uin32 RawValue_u32&lt;/span&gt;" style="rounded=0;whiteSpace=wrap;html=1;fillColor=#dae8fc;gradientColor=#7ea6e0;strokeColor=#6c8ebf;fontStyle=0" parent="9kTj7aBQRixBP0iQqbYa-7" vertex="1">
          <mxGeometry y="50.62692307692305" width="258.92116182572613" height="28.846153846153847" as="geometry" />
        </mxCell>
        <mxCell id="9kTj7aBQRixBP0iQqbYa-10" value="&lt;span style=&quot;color: rgb(0, 0, 0); text-align: left; text-wrap: nowrap;&quot;&gt;t_uin32 MeanValue_u32&lt;/span&gt;" style="rounded=0;whiteSpace=wrap;html=1;fillColor=#dae8fc;gradientColor=#7ea6e0;strokeColor=#6c8ebf;fontStyle=0" parent="9kTj7aBQRixBP0iQqbYa-7" vertex="1">
          <mxGeometry x="2.2737367544323206e-13" y="79.46999999999997" width="258.92116182572613" height="25.77" as="geometry" />
        </mxCell>
        <mxCell id="9kTj7aBQRixBP0iQqbYa-11" value="&lt;span style=&quot;color: rgb(0, 0, 0); text-align: left; text-wrap: nowrap;&quot;&gt;t_bool IsValueValid_b&lt;/span&gt;" style="rounded=0;whiteSpace=wrap;html=1;fillColor=#dae8fc;gradientColor=#7ea6e0;strokeColor=#6c8ebf;fontStyle=0" parent="9kTj7aBQRixBP0iQqbYa-7" vertex="1">
          <mxGeometry x="2.2737367544323206e-13" y="105.24000000000001" width="258.92116182572613" height="25.77" as="geometry" />
        </mxCell>
        <mxCell id="7iErL5QG6vWOKsonP4YJ-1" value="" style="group" vertex="1" connectable="0" parent="1">
          <mxGeometry x="1498.92" y="-300" width="258.92116182572613" height="290" as="geometry" />
        </mxCell>
        <mxCell id="GqYi4pi1arAsL5BwQ04q-84" value="&lt;span style=&quot;color: rgb(0, 0, 0); text-wrap: nowrap;&quot;&gt;Struct: t_sFMKCDA_SigChnlInfo&lt;/span&gt;&lt;div&gt;&lt;span style=&quot;color: rgb(0, 0, 0); text-wrap: nowrap;&quot;&gt;Location : FMKCDA.c&lt;/span&gt;&lt;/div&gt;" style="rounded=0;whiteSpace=wrap;html=1;verticalAlign=top;fillColor=#dae8fc;gradientColor=#7ea6e0;strokeColor=#6c8ebf;fontSize=16;align=left;fontStyle=0" parent="7iErL5QG6vWOKsonP4YJ-1" vertex="1">
          <mxGeometry x="1.0799999999999272" width="257.84" height="290" as="geometry" />
        </mxCell>
        <mxCell id="GqYi4pi1arAsL5BwQ04q-85" value="&lt;div style=&quot;text-align: left;&quot;&gt;&lt;span style=&quot;background-color: initial; text-wrap: nowrap;&quot;&gt;&lt;font color=&quot;#000000&quot;&gt;* ChannelPinMapping&lt;/font&gt;&lt;/span&gt;&lt;/div&gt;" style="rounded=0;whiteSpace=wrap;html=1;fillColor=#dae8fc;gradientColor=#7ea6e0;strokeColor=#6c8ebf;fontStyle=0" parent="7iErL5QG6vWOKsonP4YJ-1" vertex="1">
          <mxGeometry y="87.6369230769231" width="258.92116182572613" height="28.846153846153847" as="geometry" />
        </mxCell>
        <mxCell id="GqYi4pi1arAsL5BwQ04q-83" value="&lt;span style=&quot;color: rgb(0, 0, 0); text-align: left; text-wrap: nowrap;&quot;&gt;t_sFMKCDA_HwChannelCfg&lt;/span&gt;" style="rounded=0;whiteSpace=wrap;html=1;fillColor=#dae8fc;gradientColor=#7ea6e0;strokeColor=#6c8ebf;fontStyle=0" parent="7iErL5QG6vWOKsonP4YJ-1" vertex="1">
          <mxGeometry y="61.00999999999996" width="258.92116182572613" height="25.77" as="geometry" />
        </mxCell>
        <mxCell id="GqYi4pi1arAsL5BwQ04q-87" value="&lt;div style=&quot;text-align: left;&quot;&gt;&lt;font color=&quot;#000000&quot;&gt;&lt;span style=&quot;text-wrap: nowrap;&quot;&gt;IsChannelConfigured_b&lt;/span&gt;&lt;/font&gt;&lt;/div&gt;" style="rounded=0;whiteSpace=wrap;html=1;fillColor=#dae8fc;gradientColor=#7ea6e0;strokeColor=#6c8ebf;fontStyle=0" parent="7iErL5QG6vWOKsonP4YJ-1" vertex="1">
          <mxGeometry y="116.48692307692309" width="258.92116182572613" height="28.846153846153847" as="geometry" />
        </mxCell>
        <mxCell id="GqYi4pi1arAsL5BwQ04q-89" value="&lt;div style=&quot;text-align: left;&quot;&gt;&lt;span style=&quot;color: rgb(0, 0, 0); text-wrap: nowrap;&quot;&gt;t_sFMKCDA_SigValue&lt;/span&gt;&lt;br&gt;&lt;/div&gt;" style="rounded=0;whiteSpace=wrap;html=1;fillColor=#dae8fc;gradientColor=#7ea6e0;strokeColor=#6c8ebf;fontStyle=0" parent="7iErL5QG6vWOKsonP4YJ-1" vertex="1">
          <mxGeometry y="145.33692307692309" width="258.92116182572613" height="28.846153846153847" as="geometry" />
        </mxCell>
        <mxCell id="GqYi4pi1arAsL5BwQ04q-90" value="&lt;div style=&quot;text-align: left;&quot;&gt;&lt;font color=&quot;#000000&quot;&gt;&lt;span style=&quot;text-wrap: nowrap;&quot;&gt;t_cbFMKCDA_ChannelFunc&lt;/span&gt;&lt;/font&gt;&lt;/div&gt;" style="rounded=0;whiteSpace=wrap;html=1;fillColor=#dae8fc;gradientColor=#7ea6e0;strokeColor=#6c8ebf;fontStyle=0" parent="7iErL5QG6vWOKsonP4YJ-1" vertex="1">
          <mxGeometry y="174.18692307692308" width="258.92116182572613" height="28.846153846153847" as="geometry" />
        </mxCell>
        <mxCell id="GqYi4pi1arAsL5BwQ04q-93" value="&lt;div style=&quot;text-align: left;&quot;&gt;&lt;font color=&quot;#000000&quot;&gt;&lt;span style=&quot;text-wrap: nowrap;&quot;&gt;t_uint32 resultBuffer_pu32&lt;/span&gt;&lt;/font&gt;&lt;/div&gt;" style="rounded=0;whiteSpace=wrap;html=1;fillColor=#dae8fc;gradientColor=#7ea6e0;strokeColor=#6c8ebf;fontStyle=0" parent="7iErL5QG6vWOKsonP4YJ-1" vertex="1">
          <mxGeometry y="203.03692307692307" width="258.92116182572613" height="28.846153846153847" as="geometry" />
        </mxCell>
        <mxCell id="GqYi4pi1arAsL5BwQ04q-94" value="&lt;div style=&quot;text-align: left;&quot;&gt;&lt;font color=&quot;#000000&quot;&gt;&lt;span style=&quot;text-wrap: nowrap;&quot;&gt;t_uint8 bufferSize_u8&lt;/span&gt;&lt;/font&gt;&lt;/div&gt;" style="rounded=0;whiteSpace=wrap;html=1;fillColor=#dae8fc;gradientColor=#7ea6e0;strokeColor=#6c8ebf;fontStyle=0" parent="7iErL5QG6vWOKsonP4YJ-1" vertex="1">
          <mxGeometry y="231.88692307692307" width="258.92116182572613" height="28.846153846153847" as="geometry" />
        </mxCell>
        <mxCell id="GqYi4pi1arAsL5BwQ04q-107" value="&lt;div style=&quot;text-align: left;&quot;&gt;&lt;span style=&quot;color: rgb(0, 0, 0); text-wrap: nowrap;&quot;&gt;t_eFMKCDA_ChannelErrorState&lt;/span&gt;&lt;br&gt;&lt;/div&gt;" style="rounded=0;whiteSpace=wrap;html=1;fillColor=#dae8fc;gradientColor=#7ea6e0;strokeColor=#6c8ebf;fontStyle=0" parent="7iErL5QG6vWOKsonP4YJ-1" vertex="1">
          <mxGeometry y="260.73692307692306" width="258.92116182572613" height="28.846153846153847" as="geometry" />
        </mxCell>
        <mxCell id="7iErL5QG6vWOKsonP4YJ-2" value="" style="group" vertex="1" connectable="0" parent="1">
          <mxGeometry x="1220" y="390" width="430" height="90" as="geometry" />
        </mxCell>
        <mxCell id="7iErL5QG6vWOKsonP4YJ-3" value="" style="rounded=0;whiteSpace=wrap;html=1;fillColor=#fff2cc;gradientColor=#ffd966;strokeColor=#d6b656;fontColor=#000000;" vertex="1" parent="7iErL5QG6vWOKsonP4YJ-2">
          <mxGeometry width="429.99999999999994" height="90" as="geometry" />
        </mxCell>
        <mxCell id="7iErL5QG6vWOKsonP4YJ-4" value="&lt;span style=&quot;font-size: 16px; text-align: left; text-wrap: nowrap;&quot;&gt;t_sFMKCDA_AdcInfo in FMK_CDA&lt;/span&gt;" style="rounded=0;whiteSpace=wrap;html=1;fillColor=#fff2cc;gradientColor=#ffd966;strokeColor=#d6b656;fontColor=#000000;" vertex="1" parent="7iErL5QG6vWOKsonP4YJ-2">
          <mxGeometry width="429.99999999999994" height="40" as="geometry" />
        </mxCell>
        <mxCell id="7iErL5QG6vWOKsonP4YJ-5" value="&lt;div style=&quot;text-align: left;&quot;&gt;&lt;span style=&quot;background-color: initial; font-size: 16px; text-wrap: nowrap;&quot;&gt;g_AdcInfo_s&lt;/span&gt;&lt;/div&gt;" style="rounded=0;whiteSpace=wrap;html=1;fillColor=#fff2cc;gradientColor=#ffd966;strokeColor=#d6b656;fontColor=#000000;" vertex="1" parent="7iErL5QG6vWOKsonP4YJ-2">
          <mxGeometry y="40" width="429.99999999999994" height="50" as="geometry" />
        </mxCell>
      </root>
    </mxGraphModel>
  </diagram>
  <diagram id="5fsb9ECAU7GwNzSoTywj" name="Static API">
    <mxGraphModel dx="1420" dy="822" grid="1" gridSize="10" guides="1" tooltips="1" connect="1" arrows="1" fold="1" page="1" pageScale="1" pageWidth="827" pageHeight="1169" math="0" shadow="0">
      <root>
        <mxCell id="0" />
        <mxCell id="1" parent="0" />
      </root>
    </mxGraphModel>
  </diagram>
  <diagram id="52EYobTrtjUM5cLBcKHn" name="API">
    <mxGraphModel dx="2247" dy="1991" grid="1" gridSize="10" guides="1" tooltips="1" connect="1" arrows="1" fold="1" page="1" pageScale="1" pageWidth="827" pageHeight="1169" math="0" shadow="0">
      <root>
        <mxCell id="0" />
        <mxCell id="1" parent="0" />
        <mxCell id="giPsWPKzGk80J-NVjffv-1" value="" style="group" parent="1" vertex="1" connectable="0">
          <mxGeometry x="-330" y="-520" width="560" height="160" as="geometry" />
        </mxCell>
        <mxCell id="giPsWPKzGk80J-NVjffv-2" value="Set une input en mode digital, regarder si cette pin est déjà connfigurer avant&amp;nbsp;" style="rounded=0;whiteSpace=wrap;html=1;fillColor=#d5e8d4;gradientColor=#97d077;strokeColor=#82b366;fontColor=#000000;align=left;" parent="giPsWPKzGk80J-NVjffv-1" vertex="1">
          <mxGeometry width="560" height="160" as="geometry" />
        </mxCell>
        <mxCell id="giPsWPKzGk80J-NVjffv-3" value="&lt;div style=&quot;text-align: left;&quot;&gt;&lt;span style=&quot;background-color: initial;&quot;&gt;FMK&lt;span style=&quot;text-wrap: nowrap;&quot;&gt;CDA_ SetAdcChannelCfg(t_eFMKIO_InAnaSig,&amp;nbsp;&amp;nbsp;&lt;/span&gt;&lt;/span&gt;&lt;span style=&quot;text-wrap: nowrap; background-color: initial;&quot;&gt;t_eFMKCDA_AcquisitionMode,&lt;/span&gt;&lt;/div&gt;&lt;div style=&quot;text-align: left;&quot;&gt;&lt;span style=&quot;text-wrap: nowrap;&quot;&gt;&lt;span style=&quot;white-space: pre;&quot;&gt;&#x9;&lt;/span&gt;t_eFMKCDA_ResultMode)&lt;/span&gt;&lt;span style=&quot;text-wrap: nowrap; background-color: initial;&quot;&gt;&lt;br&gt;&lt;/span&gt;&lt;/div&gt;" style="rounded=0;whiteSpace=wrap;html=1;fillColor=#d5e8d4;gradientColor=#97d077;strokeColor=#82b366;fontColor=#000000;" parent="giPsWPKzGk80J-NVjffv-1" vertex="1">
          <mxGeometry width="560" height="40" as="geometry" />
        </mxCell>
        <mxCell id="IHcoDDxIroEgJuOTC5YH-1" value="" style="group" parent="1" vertex="1" connectable="0">
          <mxGeometry x="310" y="-520" width="560" height="160" as="geometry" />
        </mxCell>
        <mxCell id="IHcoDDxIroEgJuOTC5YH-2" value="Set une input en mode digital, regarder si cette pin est déjà connfigurer avant&amp;nbsp;" style="rounded=0;whiteSpace=wrap;html=1;fillColor=#d5e8d4;gradientColor=#97d077;strokeColor=#82b366;fontColor=#000000;align=left;" parent="IHcoDDxIroEgJuOTC5YH-1" vertex="1">
          <mxGeometry width="560" height="160" as="geometry" />
        </mxCell>
        <mxCell id="IHcoDDxIroEgJuOTC5YH-3" value="&lt;div style=&quot;text-align: left;&quot;&gt;&lt;span style=&quot;background-color: initial;&quot;&gt;FMK&lt;span style=&quot;text-wrap: nowrap;&quot;&gt;CDA_ GeAnaMeasure(t_eFMKIO_InAnaSig,&amp;nbsp;&amp;nbsp;&lt;/span&gt;&lt;/span&gt;&lt;span style=&quot;text-wrap: nowrap; background-color: initial;&quot;&gt;t&lt;/span&gt;&lt;span style=&quot;text-wrap: nowrap; background-color: initial;&quot;&gt;_sFMKCDA_SigValue&lt;/span&gt;&lt;span style=&quot;background-color: initial; text-wrap: nowrap;&quot;&gt;)&lt;/span&gt;&lt;/div&gt;" style="rounded=0;whiteSpace=wrap;html=1;fillColor=#d5e8d4;gradientColor=#97d077;strokeColor=#82b366;fontColor=#000000;" parent="IHcoDDxIroEgJuOTC5YH-1" vertex="1">
          <mxGeometry width="560" height="40" as="geometry" />
        </mxCell>
        <mxCell id="fEK6G9rPvpDyqao3rbVO-1" value="" style="group" vertex="1" connectable="0" parent="1">
          <mxGeometry x="507" y="-890" width="560" height="160" as="geometry" />
        </mxCell>
        <mxCell id="fEK6G9rPvpDyqao3rbVO-2" value="" style="rounded=0;whiteSpace=wrap;html=1;fillColor=#d5e8d4;gradientColor=#97d077;strokeColor=#82b366;fontColor=#000000;align=left;" vertex="1" parent="fEK6G9rPvpDyqao3rbVO-1">
          <mxGeometry width="560" height="160" as="geometry" />
        </mxCell>
        <mxCell id="fEK6G9rPvpDyqao3rbVO-3" value="FMKCDA_Cyclic" style="rounded=0;whiteSpace=wrap;html=1;fillColor=#d5e8d4;gradientColor=#97d077;strokeColor=#82b366;fontColor=#000000;" vertex="1" parent="fEK6G9rPvpDyqao3rbVO-1">
          <mxGeometry width="560" height="40" as="geometry" />
        </mxCell>
        <mxCell id="fEK6G9rPvpDyqao3rbVO-4" value="" style="group" vertex="1" connectable="0" parent="1">
          <mxGeometry x="-480" y="-890" width="560" height="160" as="geometry" />
        </mxCell>
        <mxCell id="fEK6G9rPvpDyqao3rbVO-5" value="" style="rounded=0;whiteSpace=wrap;html=1;fillColor=#d5e8d4;gradientColor=#97d077;strokeColor=#82b366;fontColor=#000000;align=left;" vertex="1" parent="fEK6G9rPvpDyqao3rbVO-4">
          <mxGeometry width="560" height="160" as="geometry" />
        </mxCell>
        <mxCell id="fEK6G9rPvpDyqao3rbVO-6" value="FMKCDA_Init" style="rounded=0;whiteSpace=wrap;html=1;fillColor=#d5e8d4;gradientColor=#97d077;strokeColor=#82b366;fontColor=#000000;" vertex="1" parent="fEK6G9rPvpDyqao3rbVO-4">
          <mxGeometry width="560" height="40" as="geometry" />
        </mxCell>
      </root>
    </mxGraphModel>
  </diagram>
  <diagram id="iumOGL_I_F42yoZjpXE9" name="Page-4">
    <mxGraphModel dx="1537" dy="411" grid="1" gridSize="10" guides="1" tooltips="1" connect="1" arrows="1" fold="1" page="1" pageScale="1" pageWidth="827" pageHeight="1169" math="0" shadow="0">
      <root>
        <mxCell id="0" />
        <mxCell id="1" parent="0" />
        <mxCell id="jM5ImoAIAH9fqg9ncucl-1" value="&lt;div style=&quot;color: rgb(0, 0, 0); text-align: left;&quot;&gt;&lt;span style=&quot;background-color: initial;&quot;&gt;FMK&lt;span style=&quot;text-wrap: nowrap;&quot;&gt;CDA_ SetAdcChannelCfg(t_eFMKIO_InAnaSig,&amp;nbsp;&amp;nbsp;&lt;/span&gt;&lt;/span&gt;&lt;span style=&quot;text-wrap: nowrap; background-color: initial;&quot;&gt;t_eFMKCDA_AcquisitionMode,&amp;nbsp;&lt;/span&gt;&lt;span style=&quot;text-wrap: nowrap; background-color: initial;&quot;&gt;t_eFMKCDA_ResultMode)&lt;/span&gt;&lt;/div&gt;" style="rounded=0;whiteSpace=wrap;html=1;fillColor=#647687;fontColor=#ffffff;strokeColor=#314354;" vertex="1" parent="1">
          <mxGeometry x="-375" y="20" width="750" height="60" as="geometry" />
        </mxCell>
        <mxCell id="PZ9NwsfJbi0galreD_k7-1" value="Start" style="ellipse;whiteSpace=wrap;html=1;aspect=fixed;fillColor=#f5f5f5;fontColor=#333333;strokeColor=#666666;" vertex="1" parent="1">
          <mxGeometry x="-40" y="130" width="80" height="80" as="geometry" />
        </mxCell>
        <mxCell id="PZ9NwsfJbi0galreD_k7-2" value="Stop" style="ellipse;whiteSpace=wrap;html=1;aspect=fixed;fillColor=#f5f5f5;fontColor=#333333;strokeColor=#666666;" vertex="1" parent="1">
          <mxGeometry x="-40" y="1040" width="80" height="80" as="geometry" />
        </mxCell>
      </root>
    </mxGraphModel>
  </diagram>
</mxfile>
